<?xml version="1.0" encoding="utf-8"?>
<!-- Generator: Adobe Illustrator 16.0.0, SVG Export Plug-In . SVG Version: 6.00 Build 0)  -->
<!DOCTYPE svg PUBLIC "-//W3C//DTD SVG 1.1//EN" "http://www.w3.org/Graphics/SVG/1.1/DTD/svg11.dtd">
<svg version="1.1" id="Icons" xmlns="http://www.w3.org/2000/svg" xmlns:xlink="http://www.w3.org/1999/xlink" x="0px" y="0px"
	 width="108.12px" height="108.003px" viewBox="0 0 108.12 108.003" enable-background="new 0 0 108.12 108.003"
	 xml:space="preserve">
<g>
	<g>
		
			<rect x="41" y="28.718" transform="matrix(0.7071 0.7071 -0.7071 0.7071 55.3152 -30.107)" fill="#FECC1F" width="46" height="46"/>
	</g>
	<g>
		<polygon fill="#E6E6E6" points="34.657,46.061 45,51.718 34.657,57.375 29,67.718 23.343,57.375 13,51.718 23.343,46.061 
			29,35.718 		"/>
	</g>
	<g>
		<path fill="#191918" d="M54.153,108.003c-2.411,0-4.847-0.161-7.301-0.495c-9.58-1.3-18.642-5.15-26.205-11.136l-3.897-3.084
			l4.947-0.476c20.41-1.96,36.595-17.533,39.356-37.871c2.761-20.339-8.686-39.663-27.835-46.994L28.576,6.17l4.579-1.934
			C42.038,0.486,51.801-0.81,61.38,0.49c29.505,4.005,50.251,31.268,46.245,60.772C103.953,88.313,80.729,108.003,54.153,108.003z
			 M27.071,96.054c6.119,3.938,13.058,6.506,20.318,7.491c27.32,3.698,52.562-15.5,56.272-42.82
			c3.707-27.319-15.5-52.563-42.82-56.271c-7.265-0.987-14.633-0.361-21.579,1.803c18.086,9.164,28.536,28.722,25.753,49.223
			C62.232,75.98,46.947,92.044,27.071,96.054z"/>
	</g>
	<g>
		<path fill="#191918" d="M29,71.886l-7.131-13.037L8.832,51.718l13.037-7.131L29,31.55l7.131,13.037l13.038,7.131l-13.038,7.131
			L29,71.886z M17.168,51.718l7.648,4.184L29,63.55l4.184-7.648l7.648-4.184l-7.648-4.184L29,39.886l-4.184,7.648L17.168,51.718z"/>
	</g>
	<g>
		<polygon fill="#191918" points="9.474,22.243 14,24.718 9.474,27.192 7,31.718 4.525,27.192 0,24.718 4.525,22.243 7,17.718 		"/>
	</g>
</g>
</svg>
