<?xml version="1.0" encoding="utf-8"?>
<!-- Generator: Adobe Illustrator 16.0.0, SVG Export Plug-In . SVG Version: 6.00 Build 0)  -->
<!DOCTYPE svg PUBLIC "-//W3C//DTD SVG 1.1//EN" "http://www.w3.org/Graphics/SVG/1.1/DTD/svg11.dtd">
<svg version="1.1" id="Icons" xmlns="http://www.w3.org/2000/svg" xmlns:xlink="http://www.w3.org/1999/xlink" x="0px" y="0px"
	 width="114.158px" height="120px" viewBox="0 0 114.158 120" enable-background="new 0 0 114.158 120" xml:space="preserve">
<g>
	<g>
		
			<rect x="35.713" y="52.999" transform="matrix(0.7071 -0.7071 0.7071 0.7071 -36.5433 63.7767)" fill="#FECC1F" width="46" height="46"/>
	</g>
	<g>
		<polygon fill="#E6E6E6" points="108.247,64.959 11.252,51.239 14.911,24.488 111.906,38.208 		"/>
	</g>
	<g>
		<polygon fill="#191918" points="103.713,120 8.713,120 8.713,60 12.713,60 12.713,116 99.713,116 99.713,73 103.713,73 		"/>
	</g>
	<g>
		<path fill="#191918" d="M109.957,67.216L0,51.945l4.201-30.714l109.957,15.271L109.957,67.216z M4.504,48.533l102.032,14.17
			l3.118-22.788L7.621,25.745L4.504,48.533z"/>
	</g>
	<g>
		<path fill="#191918" d="M105.744,35.913l-3.833-1.141c0.65-2.185,0.519-3.93-0.4-5.334c-1.948-2.975-6.807-3.601-6.855-3.607
			l-3.144-0.385l1.693-2.674c0.811-1.288,2.708-5.262,1.734-8.098c-0.492-1.433-1.678-2.472-3.628-3.178
			c-3.413-1.239-6.858,1.913-12.662,7.581c-2.303,2.249-4.914,4.799-7.853,7.222l-2.543-3.088c2.81-2.314,5.355-4.802,7.602-6.995
			c5.839-5.704,10.876-10.628,16.818-8.481c3.125,1.132,5.161,3.035,6.056,5.658c1.104,3.24,0.084,6.781-0.894,9.073
			c2.203,0.677,5.225,2.054,7.008,4.76C106.437,29.645,106.74,32.568,105.744,35.913z"/>
	</g>
	<g>
		<path fill="#191918" d="M16.121,23.661c-0.06-3.489,1.016-6.224,3.202-8.126c2.443-2.129,5.725-2.644,8.028-2.704
			c-0.328-2.471-0.359-6.156,1.574-8.981c1.565-2.286,4.04-3.573,7.352-3.824c6.299-0.463,9.831,5.623,13.927,12.687
			c1.498,2.584,3.048,5.257,4.893,7.977l-3.311,2.246c-1.924-2.838-3.581-5.695-5.043-8.217C42.673,7.697,40.184,3.756,36.579,4.013
			c-2.067,0.157-3.489,0.84-4.348,2.088c-1.699,2.471-0.938,6.809-0.501,8.271l0.907,3.038l-3.131-0.486
			c-0.045-0.006-4.894-0.707-7.567,1.636c-1.263,1.106-1.858,2.751-1.818,5.03L16.121,23.661z"/>
	</g>
	<g>
		<path fill="#191918" d="M72.72,31.88l-3.963-0.541l0.368-2.693c0.327-2.399-1.357-4.618-3.756-4.946l-6.848-0.937
			c-2.391-0.327-4.618,1.358-4.945,3.757l-0.497,3.639l-3.963-0.541l0.498-3.64c0.626-4.584,4.862-7.806,9.45-7.178l6.848,0.937
			c4.583,0.626,7.803,4.865,7.177,9.45L72.72,31.88z"/>
	</g>
	<g>
		<rect x="47.713" y="64" fill="#191918" width="4" height="53"/>
	</g>
	<g>
		<rect x="66.713" y="69" fill="#191918" width="4" height="48"/>
	</g>
</g>
</svg>
