<?xml version="1.0" encoding="utf-8"?>
<!-- Generator: Adobe Illustrator 16.0.0, SVG Export Plug-In . SVG Version: 6.00 Build 0)  -->
<!DOCTYPE svg PUBLIC "-//W3C//DTD SVG 1.1//EN" "http://www.w3.org/Graphics/SVG/1.1/DTD/svg11.dtd">
<svg version="1.1" id="Icons" xmlns="http://www.w3.org/2000/svg" xmlns:xlink="http://www.w3.org/1999/xlink" x="0px" y="0px"
	 width="123.337px" height="112px" viewBox="0 0 123.337 112" enable-background="new 0 0 123.337 112" xml:space="preserve">
<g>
	<g>
		<path fill="#E6E6E6" d="M119,54.674l-15.661,18.464L86.604,54.674h9.593c0-19.717-16.624-37.217-37.132-37.217
			c-25.196,0-41.631,18.036-41.631,38.543c0,23.413,18.623,38.543,38.652,38.543v12.87C28.171,107.413,7.651,84.395,7.651,56
			c0-28.395,23.02-51.414,51.414-51.414s51.384,21.542,51.384,50.087H119z"/>
	</g>
	<g>
		<circle fill="#FECC1F" cx="64.826" cy="55.63" r="23"/>
	</g>
	<g>
		<path fill="#191918" d="M58.087,112h-2C25.16,112,0,86.879,0,56S25.121,0,56,0c30.698,0,54.892,22.978,55.934,52.674h11.403
			L102.55,77.022L80.345,52.674h12.598C91.863,33.93,75.706,19,56,19c-20.402,0-37,16.598-37,37s16.636,37,37.087,37h2V112z M56,4
			C27.327,4,4,27.327,4,56c0,28.004,22.288,50.909,50.087,51.962v-11.01C32.356,95.907,15,77.938,15,56c0-22.607,18.393-41,41-41
			c22.606,0,41,17.798,41,39.674v2h-7.595l13.045,14.304l12.213-14.304h-6.695v-2C107.968,26.259,85.142,4,56,4z"/>
	</g>
	<g>
		<polygon fill="#191918" points="59.087,58.674 37.087,58.674 37.087,54.674 55.087,54.674 55.087,30.674 59.087,30.674 		"/>
	</g>
</g>
</svg>
